Coordinates
version=1
nRows=10
nColumns=63
inDegrees=yes

Units are S.I. units (second, meters, Newtons, ...)
If the header above contains a line with 'inDegrees', this indicates whether rotational values are in degrees (yes) or radians (no).

endheader
time	pelvis_tilt	pelvis_list	pelvis_rotation	pelvis_tx	pelvis_ty	pelvis_tz	hip_flexion_r	hip_adduction_r	hip_rotation_r	knee_angle_r	knee_angle_r_beta	ankle_angle_r	subtalar_angle_r	mtp_angle_r	hip_flexion_l	hip_adduction_l	hip_rotation_l	knee_angle_l	knee_angle_l_beta	ankle_angle_l	subtalar_angle_l	mtp_angle_l	L5_S1_Flex_Ext	L5_S1_Lat_Bending	L5_S1_axial_rotation	L4_L5_Flex_Ext	L4_L5_Lat_Bending	L4_L5_axial_rotation	L3_L4_Flex_Ext	L3_L4_Lat_Bending	L3_L4_axial_rotation	L2_L3_Flex_Ext	L2_L3_Lat_Bending	L2_L3_axial_rotation	L1_L2_Flex_Ext	L1_L2_Lat_Bending	L1_L2_axial_rotation	L1_T12_Flex_Ext	L1_T12_Lat_Bending	L1_T12_axial_rotation	Abs_r3	Abs_r2	Abs_r1	Abs_t1	Abs_t2	neck_flexion	neck_bending	neck_rotation	arm_flex_r	arm_add_r	arm_rot_r	elbow_flex_r	pro_sup_r	wrist_flex_r	wrist_dev_r	arm_flex_l	arm_add_l	arm_rot_l	elbow_flex_l	pro_sup_l	wrist_flex_l	wrist_dev_l
      4.71698113	     -0.40428558	     -6.71807626	     78.89708419	      0.04072367	      0.85969956	      0.66924972	     10.36520183	     -1.91049261	      9.13355833	     16.73629397	      0.29210343	     39.57605998	      8.82141489	      0.00000000	      3.23885903	      1.95724167	    -14.46838095	      5.84379956	      0.10199354	     39.99954141	      5.00772332	      0.00000000	     -0.13060100	      0.12739627	      3.11954510	     -0.24253911	      0.16943704	      3.31451667	     -0.21456438	      0.30975128	      3.31451667	     -0.14926388	      0.30975128	      2.72960196	     -0.12127609	      0.25978647	      2.53463039	     -0.07462541	      0.19733682	      2.33965883	     -0.93286986	      1.44113206	     17.34997398	      0.00000000	      0.00000000	     28.24594291	     -6.90657980	     -3.64502792	     -0.54547392	    -15.42688483	     41.52183738	     20.91244727	     68.09338852	    -11.06797655	     -6.72230026	     13.18515435	     -8.06445674	    130.15979504	     11.85814390	     16.76292116	     -8.65798480	     -8.29119072
      4.73584906	     -0.69151179	     -6.71187094	     78.70757222	      0.04117436	      0.85968921	      0.66956386	     10.43698432	     -2.19521144	      9.34250900	     16.83567824	      0.29383802	     39.60146440	      8.92021001	      0.00000000	      3.38307116	      2.19023572	    -14.92736158	      6.10778295	      0.10660092	     39.89442241	      5.08720025	      0.00000000	     -0.13207934	      0.09007763	      3.11618477	     -0.24528454	      0.11980325	      3.31094632	     -0.21699315	      0.21901475	      3.31094632	     -0.15095348	      0.21901475	      2.72666167	     -0.12264888	      0.18368630	      2.53190012	     -0.07547014	      0.13953025	      2.33713858	     -0.94342952	      1.01897617	     17.33128483	      0.00000000	      0.00000000	     28.24635969	     -6.62186975	     -3.47645709	     -0.17957175	    -15.32803832	     42.66319629	     20.68719205	     68.25545305	    -11.28875438	     -6.73005695	     13.05013433	     -8.54512039	    127.59418539	     12.37238500	     15.86653378	     -7.88821132	     -8.16732226
      4.75471698	     -0.85639598	     -6.67109455	     78.80248215	      0.04126757	      0.85968676	      0.66948364	     10.33479500	     -2.36651165	      9.56057873	     16.82855103	      0.29371362	     39.50435903	      8.70072204	      0.00000000	      3.38532716	      2.35311092	    -14.91745120	      6.25493316	      0.10916918	     39.69892641	      4.93593248	      0.00000000	     -0.13444565	      0.06465693	      3.09818635	     -0.24967902	      0.08599372	      3.29182300	     -0.22088076	      0.15720687	      3.29182300	     -0.15365793	      0.15720687	      2.71091306	     -0.12484623	      0.13184842	      2.51727641	     -0.07682224	      0.10015359	      2.32363976	     -0.96033184	      0.73141216	     17.23118301	      0.00000000	      0.00000000	     28.24740121	     -6.46514988	     -3.57810232	     -0.12135965	    -15.28298513	     43.13797600	     20.68398215	     67.53188893	    -11.07013208	     -6.96722427	     12.87931074	     -8.94407649	    124.98475187	     12.81104590	     16.69829656	     -7.82625245	     -7.98769445
      4.77358491	     -0.85561173	     -6.69937126	     79.02470178	      0.04116393	      0.85968222	      0.66948728	     10.22492226	     -2.35899999	      9.78597840	     16.73150604	      0.29201987	     39.26944456	      8.32477992	      0.00000000	      3.62523832	      2.04289623	    -18.58387751	      6.98225669	      0.12186337	     40.50734574	      9.46393659	      0.00000000	     -0.13591456	      0.06118346	      3.10788734	     -0.25240694	      0.08137401	      3.30213030	     -0.22329404	      0.14876148	      3.30213030	     -0.15533676	      0.14876148	      2.71940142	     -0.12621026	      0.12476532	      2.52515846	     -0.07766158	      0.09477319	      2.33091550	     -0.97082414	      0.69211959	     17.28513702	      0.00000000	      0.00000000	     28.25038963	     -6.56666307	     -3.76184354	     -1.06212688	    -15.02176403	     37.19463186	     21.66280523	     73.19332081	    -10.40432839	     -5.73572948	     13.06311971	     -8.08453156	    134.86839613	     11.25528424	      7.67453666	     -6.40511067	     -8.62659503
      4.79245283	     -0.96555807	     -6.66992633	     79.14486500	      0.04119543	      0.85976035	      0.66926512	     10.07227547	     -2.38855135	     10.59535931	     16.61697762	      0.29002097	     38.95201858	      7.25087143	      0.00000000	      3.61434937	      2.15502672	    -18.31173937	      7.12339071	      0.12432662	     40.37011291	      9.06727469	      0.00000000	     -0.14139909	      0.04026582	      3.09654843	     -0.26259226	      0.05355355	      3.29008271	     -0.23230457	      0.09790233	      3.29008271	     -0.16160503	      0.09790233	      2.70947988	     -0.13130320	      0.08211007	      2.51594560	     -0.08079544	      0.06237176	      2.32241132	     -1.00999959	      0.45549506	     17.22207341	      0.00000000	      0.00000000	     28.25367902	     -6.35746318	     -3.78002385	     -1.24303885	    -14.89634832	     35.97640338	     21.96518639	     73.90863448	     -9.93370427	     -5.42072405	     12.81706378	     -8.21172224	    133.83716183	     11.07182826	      7.46827601	     -6.13880115	     -8.76971661
      4.81132075	     -1.03868676	     -6.63331575	     79.37814180	      0.04103871	      0.85986632	      0.66895363	      9.89696426	     -2.45910019	     10.86326170	     16.46335981	      0.28733983	     38.71167161	      6.65451427	      0.00000000	      3.60211034	      2.25079958	    -17.63729265	      7.24022853	      0.12636583	     40.25003972	      8.44744299	      0.00000000	     -0.15070214	      0.02332397	      3.07680315	     -0.27986894	      0.03102088	      3.26910334	     -0.24758854	      0.05670990	      3.26910334	     -0.17223747	      0.05670990	      2.69220275	     -0.13994201	      0.04756224	      2.49990256	     -0.08611120	      0.03612883	      2.30760236	     -1.07645031	      0.26384539	     17.11225607	      0.00000000	      0.00000000	     28.25756281	     -6.10380376	     -3.83440011	     -1.59666810	    -14.70070975	     33.71923566	     22.42094792	     75.50392848	     -9.33304482	     -4.87323674	     12.60577556	     -8.19173469	    134.11890256	     10.56591623	      6.97211117	     -5.68177849	     -9.03765096
      4.83018868	     -1.12422153	     -6.56100579	     79.60893461	      0.04065941	      0.85999415	      0.66850676	      9.74578827	     -2.64680051	     10.42090966	     16.37322306	      0.28576665	     38.77268188	      6.99857792	      0.00000000	      3.49528875	      2.41336397	    -16.66221094	      7.19473370	      0.12557179	     40.18694421	      7.65430826	      0.00000000	     -0.16062455	      0.00970186	      3.03129767	     -0.29829586	      0.01290347	      3.22075377	     -0.26389008	      0.02358909	      3.22075377	     -0.18357780	      0.02358909	      2.65238546	     -0.14915596	      0.01978402	      2.46292935	     -0.09178087	      0.01502817	      2.27347325	     -1.14732512	      0.10974933	     16.85916823	      0.00000000	      0.00000000	     28.26008012	     -5.84773990	     -3.59737899	     -1.35617840	    -14.80705584	     35.31960035	     22.34300860	     72.86376084	     -9.03837988	     -4.91743498	     12.26134824	     -8.59064336	    128.58495340	     11.01385303	     10.77404784	     -6.20599525	     -9.25016402
      4.84905660	     -1.20482732	     -6.53056657	     79.90850905	      0.04019364	      0.86009201	      0.66809667	      9.64541508	     -2.83917535	      9.86012319	     16.28711607	      0.28426380	     38.85899427	      7.42249162	      0.00000000	      3.41513553	      2.63419121	    -14.69270215	      7.01110956	      0.12236695	     39.88781695	      5.80618586	      0.00000000	     -0.16664018	     -0.00257607	      2.97299581	     -0.30946749	     -0.00342618	      3.15880804	     -0.27377316	     -0.00626346	      3.15880804	     -0.19045307	     -0.00626346	      2.60137133	     -0.15474208	     -0.00525313	      2.41555909	     -0.09521820	     -0.00399034	      2.22974685	     -1.19029417	     -0.02914104	     16.53491078	      0.00000000	      0.00000000	     28.26254123	     -5.61019986	     -3.40899077	     -1.24496950	    -14.82084832	     35.86506538	     22.37396779	     72.13926585	     -8.90527063	     -4.78423707	     12.05597796	     -8.69232543	    127.00985526	     10.95884153	     11.90394325	     -6.23539118	     -9.56481062
      4.86792453	     -1.10536045	     -6.47546943	     80.16850568	      0.03946535	      0.86018993	      0.66730923	      9.42382236	     -2.83090627	      9.58256177	     16.11322326	      0.28122880	     38.86871830	      7.46606732	      0.00000000	      3.19941705	      2.70717650	    -12.38833448	      6.67857967	      0.11656320	     39.58441280	      3.74538339	      0.00000000	     -0.17540711	      0.01586726	      2.95721777	     -0.32574854	      0.02110345	      3.14204388	     -0.28817634	      0.03857965	      3.14204388	     -0.20047279	      0.03857965	      2.58756555	     -0.16288304	      0.03235651	      2.40273944	     -0.10022762	      0.02457838	      2.21791333	     -1.25291544	      0.17949361	     16.44715808	      0.00000000	      0.00000000	     28.26842271	     -5.75546321	     -3.24176328	     -2.08108554	    -14.60715349	     31.24001636	     23.18331893	     75.92095798	     -8.28190933	     -3.69558453	     12.01317497	     -7.68129193	    137.33781897	      8.95021894	      5.21598477	     -5.28535394	    -10.06270112
      4.88679245	     -1.10087916	     -6.44933227	     80.54926218	      0.03882287	      0.86021578	      0.66673809	      9.26369034	     -2.89289111	      9.33937707	     15.97111247	      0.27874850	     38.93396433	      7.36705073	      0.00000000	      3.12558283	      2.74881869	    -11.60896257	      6.52862257	      0.11394596	     39.62132379	      3.67972192	      0.00000000	     -0.17634406	      0.02015334	      2.86641988	     -0.32748856	      0.02680394	      3.04557113	     -0.28971566	      0.04900083	      3.04557113	     -0.20154363	      0.04900083	      2.50811740	     -0.16375310	      0.04109669	      2.32896616	     -0.10076300	      0.03121753	      2.14981491	     -1.25960802	      0.22797863	     15.94216747	      0.00000000	      0.00000000	     28.26933950	     -5.58708951	     -2.86992286	     -1.95426476	    -14.68779365	     32.07464524	     23.07354009	     74.78977017	     -8.27079172	     -3.71891367	     11.95288186	     -7.85504485	    135.17134848	      9.39744477	      6.50569348	     -5.48164800	    -10.13735290
